<svg xmlns="http://www.w3.org/2000/svg" viewBox="0 0 900 620" role="img" aria-labelledby="title desc">
  <title id="title">Two points on the unit circle</title>
  <desc id="desc">The unit circle centred at O with points A and B, radii OA and OB, angles alpha and beta from the positive x-axis, their difference delta, and chord AB.</desc>
  <rect width="900" height="620" fill="#f5f8fa"/>

  <line x1="90" y1="500" x2="840" y2="500" stroke="#9aa6b2" stroke-width="2"/>
  <line x1="180" y1="565" x2="180" y2="45" stroke="#9aa6b2" stroke-width="2"/>
  <circle cx="180" cy="500" r="390" fill="none" stroke="#bdc8d1" stroke-width="2.5"/>

  <line x1="180" y1="500" x2="425" y2="197" stroke="#2f6f9f" stroke-width="7"/>
  <line x1="180" y1="500" x2="520" y2="310" stroke="#3f735f" stroke-width="7"/>
  <line x1="425" y1="197" x2="520" y2="310" stroke="#b1782b" stroke-width="6"/>

  <path d="M285 500 A105 105 0 0 0 271 447" fill="none" stroke="#3f735f" stroke-width="4"/>
  <path d="M330 500 A150 150 0 0 0 274 383" fill="none" stroke="#2f6f9f" stroke-width="4"/>
  <path d="M286 389 A122 122 0 0 1 298 438" fill="none" stroke="#b1782b" stroke-width="4"/>

  <circle cx="180" cy="500" r="8" fill="#18212b"/>
  <circle cx="425" cy="197" r="9" fill="#2f6f9f"/>
  <circle cx="520" cy="310" r="9" fill="#3f735f"/>

  <g fill="#fff" fill-opacity="0.96" stroke="#d7dee4" stroke-width="1.5">
    <rect x="142" y="511" width="52" height="42" rx="11"/>
    <rect x="407" y="130" width="335" height="50" rx="12"/>
    <rect x="529" y="286" width="300" height="50" rx="12"/>
    <rect x="287" y="270" width="108" height="40" rx="10"/>
    <rect x="286" y="454" width="108" height="40" rx="10"/>
    <rect x="427" y="224" width="126" height="40" rx="10"/>
    <rect x="255" y="455" width="44" height="36" rx="10"/>
    <rect x="278" y="395" width="126" height="36" rx="10"/>
  </g>

  <g font-family="Georgia, 'Times New Roman', serif">
    <text x="157" y="541" font-size="28" fill="#18212b">O</text>
    <text x="422" y="164" font-size="27" fill="#2f6f9f">A = (cos α, sin α)</text>
    <text x="544" y="320" font-size="27" fill="#3f735f">B = (cos β, sin β)</text>
    <text x="306" y="298" font-size="25" fill="#2f6f9f">OA = 1</text>
    <text x="305" y="482" font-size="25" fill="#3f735f">OB = 1</text>
    <text x="443" y="252" font-size="25" fill="#b1782b">chord AB</text>
    <text x="268" y="481" font-size="24" fill="#3f735f">β</text>
    <text x="293" y="420" font-size="24" fill="#b1782b">δ = α − β</text>
  </g>

  <text x="806" y="489" font-family="Arial, sans-serif" font-size="22" fill="#66717d">x</text>
  <text x="197" y="68" font-family="Arial, sans-serif" font-size="22" fill="#66717d">y</text>
</svg>