<svg xmlns="http://www.w3.org/2000/svg" viewBox="0 0 900 620" role="img" aria-labelledby="title desc">
  <title id="title">Geometric setup for the cosine difference identity</title>
  <desc id="desc">Points A and B lie on the unit circle centred at O. Their angles from the positive x-axis are alpha and beta. The perpendicular from A to OB meets OB at H. The diagram labels OA and OB as one, OH as cosine delta, AH as sine delta, and HB as one minus cosine delta, where delta equals alpha minus beta.</desc>

  <rect width="900" height="620" fill="#f5f8fa"/>

  <!-- coordinate reference and unit circle -->
  <line x1="75" y1="480" x2="840" y2="480" stroke="#9aa6b2" stroke-width="2"/>
  <line x1="150" y1="555" x2="150" y2="45" stroke="#9aa6b2" stroke-width="2"/>
  <circle cx="150" cy="480" r="450" fill="none" stroke="#c6d0d8" stroke-width="2"/>

  <!-- main geometric objects -->
  <line x1="150" y1="480" x2="408" y2="111" stroke="#2f6f9f" stroke-width="7"/>
  <line x1="150" y1="480" x2="573" y2="326" stroke="#3f735f" stroke-width="7"/>
  <line x1="408" y1="111" x2="573" y2="326" stroke="#18212b" stroke-width="5"/>
  <line x1="408" y1="111" x2="497" y2="354" stroke="#b1782b" stroke-width="6"/>

  <!-- right-angle marker at H -->
  <polyline points="497,354 515,347 522,365" fill="none" stroke="#66717d" stroke-width="3"/>

  <!-- angle arcs -->
  <path d="M245 480 A95 95 0 0 0 239 447" fill="none" stroke="#3f735f" stroke-width="4"/>
  <path d="M285 480 A135 135 0 0 0 227 369" fill="none" stroke="#2f6f9f" stroke-width="4"/>
  <path d="M238 371 A108 108 0 0 1 252 428" fill="none" stroke="#b1782b" stroke-width="4"/>

  <!-- points -->
  <circle cx="150" cy="480" r="8" fill="#18212b"/>
  <circle cx="408" cy="111" r="9" fill="#2f6f9f"/>
  <circle cx="497" cy="354" r="8" fill="#b1782b"/>
  <circle cx="573" cy="326" r="9" fill="#3f735f"/>

  <!-- label backgrounds -->
  <g fill="#ffffff" fill-opacity="0.94" stroke="#d7dee4" stroke-width="1.5">
    <rect x="112" y="490" width="52" height="42" rx="12"/>
    <rect x="392" y="54" width="350" height="48" rx="12"/>
    <rect x="560" y="276" width="290" height="48" rx="12"/>
    <rect x="475" y="366" width="52" height="42" rx="12"/>
    <rect x="273" y="244" width="108" height="40" rx="10"/>
    <rect x="245" y="432" width="148" height="40" rx="10"/>
    <rect x="425" y="203" width="138" height="40" rx="10"/>
    <rect x="500" y="382" width="220" height="40" rx="10"/>
    <rect x="225" y="446" width="44" height="36" rx="10"/>
    <rect x="253" y="384" width="78" height="36" rx="10"/>
  </g>

  <!-- labels -->
  <g font-family="Georgia, 'Times New Roman', serif">
    <text x="128" y="520" font-size="28" fill="#18212b">O</text>
    <text x="408" y="87" font-size="27" fill="#2f6f9f">A = (cos α, sin α)</text>
    <text x="576" y="309" font-size="27" fill="#3f735f">B = (cos β, sin β)</text>
    <text x="488" y="396" font-size="28" fill="#b1782b">H</text>

    <text x="289" y="271" font-size="25" fill="#2f6f9f">OA = 1</text>
    <text x="260" y="460" font-size="25" fill="#3f735f">OB = 1</text>
    <text x="441" y="231" font-size="25" fill="#b1782b">AH = sin δ</text>
    <text x="516" y="410" font-size="24" fill="#18212b">HB = 1 − cos δ</text>

    <text x="235" y="472" font-size="24" fill="#3f735f">β</text>
    <text x="270" y="410" font-size="24" fill="#b1782b">δ=α−β</text>
  </g>

  <text x="810" y="468" font-family="Arial, sans-serif" font-size="22" fill="#66717d">x</text>
  <text x="166" y="66" font-family="Arial, sans-serif" font-size="22" fill="#66717d">y</text>

  <!-- OH label placed directly on the base segment -->
  <g>
    <rect x="326" y="384" width="154" height="40" rx="10" fill="#ffffff" fill-opacity="0.94" stroke="#d7dee4" stroke-width="1.5"/>
    <text x="342" y="411" font-family="Georgia, 'Times New Roman', serif" font-size="24" fill="#3f735f">OH = cos δ</text>
  </g>
</svg>