<svg xmlns="http://www.w3.org/2000/svg" viewBox="0 0 800 520" role="img" aria-labelledby="title desc">
  <title id="title">Two unit radii and the angle difference</title>
  <desc id="desc">A unit circle with points A and B at angles alpha and beta, together with the angle alpha minus beta.</desc>
  <defs>
    <marker id="arrow" markerWidth="10" markerHeight="10" refX="8" refY="3" orient="auto" markerUnits="strokeWidth">
      <path d="M0,0 L0,6 L9,3 z" fill="#2f6f9f"/>
    </marker>
  </defs>
  <rect width="800" height="520" fill="#f5f8fa"/>
  <line x1="90" y1="390" x2="730" y2="390" stroke="#66717d" stroke-width="2" marker-end="url(#arrow)"/>
  <line x1="260" y1="470" x2="260" y2="55" stroke="#66717d" stroke-width="2" marker-end="url(#arrow)"/>
  <circle cx="260" cy="390" r="210" fill="none" stroke="#a9b2ba" stroke-width="2"/>
  <line x1="260" y1="390" x2="449" y2="299" stroke="#3f735f" stroke-width="5"/>
  <line x1="260" y1="390" x2="390" y2="225" stroke="#2f6f9f" stroke-width="5"/>
  <circle cx="449" cy="299" r="7" fill="#3f735f"/>
  <circle cx="390" cy="225" r="7" fill="#2f6f9f"/>
  <circle cx="260" cy="390" r="6" fill="#18212b"/>
  <path d="M330 390 A70 70 0 0 0 323 360" fill="none" stroke="#3f735f" stroke-width="3"/>
  <path d="M345 349 A105 105 0 0 0 325 308" fill="none" stroke="#2f6f9f" stroke-width="3"/>
  <path d="M318 353 A70 70 0 0 0 302 334" fill="none" stroke="#b1782b" stroke-width="4"/>
  <text x="458" y="294" font-family="serif" font-size="28" fill="#3f735f">B=(cos β, sin β)</text>
  <text x="400" y="215" font-family="serif" font-size="28" fill="#2f6f9f">A=(cos α, sin α)</text>
  <text x="332" y="378" font-family="serif" font-size="25" fill="#3f735f">β</text>
  <text x="344" y="326" font-family="serif" font-size="25" fill="#2f6f9f">α</text>
  <text x="305" y="318" font-family="serif" font-size="24" fill="#b1782b">α−β</text>
  <text x="238" y="420" font-family="serif" font-size="24" fill="#18212b">O</text>
  <text x="620" y="423" font-family="sans-serif" font-size="20" fill="#66717d">x</text>
  <text x="278" y="75" font-family="sans-serif" font-size="20" fill="#66717d">y</text>
</svg>